<?xml version="1.0" encoding="UTF-8" standalone="no"?>
<svg
   xmlns:dc="http://purl.org/dc/elements/1.1/"
   xmlns:cc="http://creativecommons.org/ns#"
   xmlns:rdf="http://www.w3.org/1999/02/22-rdf-syntax-ns#"
   xmlns:svg="http://www.w3.org/2000/svg"
   xmlns="http://www.w3.org/2000/svg"
   viewBox="0 0 453.28134 229.86"
   height="229.86"
   width="453.28134"
   xml:space="preserve"
   id="svg2"
   version="1.1"><metadata
     id="metadata8"><rdf:RDF><cc:Work
         rdf:about=""><dc:format>image/svg+xml</dc:format><dc:type
           rdf:resource="http://purl.org/dc/dcmitype/StillImage" /></cc:Work></rdf:RDF></metadata><defs
     id="defs6"><clipPath
       id="clipPath18"
       clipPathUnits="userSpaceOnUse"><path
         id="path16"
         d="M 0,172.395 H 339.961 V 0 H 0 Z" /></clipPath></defs><g
     transform="matrix(1.3333333,0,0,-1.3333333,0,229.86)"
     id="g10"><g
       id="g12"><g
         clip-path="url(#clipPath18)"
         id="g14"><g
           transform="translate(106.8196,84.7703)"
           id="g20"><path
             id="path22"
             style="fill:#292929;fill-opacity:1;fill-rule:nonzero;stroke:none"
             d="m 0,0 c -3.064,0 -5.455,2.372 -5.455,5.594 0,3.171 2.391,5.562 5.455,5.562 3.027,0 5.418,-2.391 5.418,-5.562 C 5.418,2.372 3.027,0 0,0 m 0,12.27 c -3.687,0 -6.802,-2.832 -6.802,-6.676 0,-3.876 3.121,-6.708 6.802,-6.708 3.649,0 6.764,2.832 6.764,6.708 0,3.844 -3.115,6.676 -6.764,6.676" /></g><g
           transform="translate(105.3976,90.8296)"
           id="g24"><path
             id="path26"
             style="fill:#292929;fill-opacity:1;fill-rule:nonzero;stroke:none"
             d="M 0,0 V 2.391 H 1.592 C 2.41,2.391 3.278,2.215 3.278,1.258 3.278,0.069 2.397,0 1.403,0 Z m 2.504,-0.944 c 1.133,0.145 2.001,0.743 2.001,2.127 0,1.523 -0.906,2.196 -2.731,2.196 h -2.938 v -7.721 h 1.17 v 3.348 H 1.353 L 3.391,-4.342 H 4.7 Z" /></g><g
           transform="translate(80.836,127.5002)"
           id="g28"><path
             id="path30"
             style="fill:#292929;fill-opacity:1;fill-rule:nonzero;stroke:none"
             d="m 0,0 c 8.287,0.359 30.888,1.019 53.496,3.53 -2.203,1.472 -6.639,4.719 -11.112,9.677 -18.26,-0.258 -42.56,0.227 -74.04,2.322 0,0 7.865,-8.847 10.817,-11.401 C -17.889,1.573 -13.566,-0.591 0,0" /></g><g
           transform="translate(118.9913,126.9339)"
           id="g32"><path
             id="path34"
             style="fill:#292929;fill-opacity:1;fill-rule:nonzero;stroke:none"
             d="m 0,0 c 0,0 4.316,-5.738 13.553,-5.147 9.237,0.592 11.798,2.555 11.798,2.555 L 18.058,1.9 C 12.71,1.202 6.714,0.554 0,0" /></g><g
           transform="translate(92.0359,114.9097)"
           id="g36"><path
             id="path38"
             style="fill:#292929;fill-opacity:1;fill-rule:nonzero;stroke:none"
             d="m 0,0 c 15.34,1.768 28.51,3.933 33.625,4.914 0.006,0 -8.84,4.423 -10.81,6.783 -13.32,-0.969 -29.441,-1.567 -48.374,-1.472 0,0 1.573,-3.933 5.11,-6.292 C -16.913,1.573 -15.34,-1.768 0,0" /></g><g
           transform="translate(127.8318,118.4458)"
           id="g40"><path
             id="path42"
             style="fill:#292929;fill-opacity:1;fill-rule:nonzero;stroke:none"
             d="m 0,0 c -27.333,-7.664 -45.523,-6.877 -45.523,-6.884 0.887,-1.082 4.322,-8.06 16.026,-7.865 11.703,0.195 39.917,9.143 39.917,9.143 C 3.933,-3.045 0,0 0,0" /></g><g
           transform="translate(131.0408,119.1002)"
           id="g44"><path
             id="path46"
             style="fill:#292929;fill-opacity:1;fill-rule:nonzero;stroke:none"
             d="M 0,0 C 9.438,-7.664 23.136,-0.063 23.136,-0.063 21.884,0.132 15.202,3.933 15.202,3.933 11.533,2.555 0,0 0,0" /></g><g
           transform="translate(161.0604,119.9182)"
           id="g48"><path
             id="path50"
             style="fill:#292929;fill-opacity:1;fill-rule:nonzero;stroke:none"
             d="m 0,0 c 0,0 1.082,-2.85 11.011,-2.064 0,0 5.902,2.165 12.685,10.621 -0.006,0 -3.152,1.674 -6.003,3.637 C 17.693,12.194 6.487,2.46 0,0" /></g><g
           transform="translate(175.0226,116.4827)"
           id="g52"><path
             id="path54"
             style="fill:#292929;fill-opacity:1;fill-rule:nonzero;stroke:none"
             d="m 0,0 c 0,0 7.475,-1.472 11.697,2.85 4.222,4.323 5.109,6.588 5.109,6.588 0,0 -4.322,1.177 -5.304,1.869 z" /></g><g
           transform="translate(197.4352,125.3294)"
           id="g56"><path
             id="path58"
             style="fill:#292929;fill-opacity:1;fill-rule:nonzero;stroke:none"
             d="m 0,0 c 0,0 -3.045,-0.101 -4.128,0.491 0,0 -3.146,-6.588 -5.209,-8.161 0,0 3.932,-1.768 9.337,7.67" /></g><g
           transform="translate(164.993,111.2728)"
           id="g60"><path
             id="path62"
             style="fill:#292929;fill-opacity:1;fill-rule:nonzero;stroke:none"
             d="m 0,0 c 0,0 1.472,-1.472 5.109,-1.472 3.637,0 8.652,1.768 12.88,5.405 0,0 -9.142,-0.888 -11.993,-0.888 C 5.996,3.045 2.359,0.786 0,0" /></g><g
           transform="translate(147.8848,114.0225)"
           id="g64"><path
             id="path66"
             style="fill:#292929;fill-opacity:1;fill-rule:nonzero;stroke:none"
             d="m 0,0 c 0,0 1.082,-2.555 7.67,-2.555 6.588,0 11.798,2.656 13.075,4.034 L 9.633,4.128 Z" /></g><g
           transform="translate(74.9626,31.8599)"
           id="g68"><path
             id="path70"
             style="fill:#292929;fill-opacity:1;fill-rule:nonzero;stroke:none"
             d="m 0,0 1.573,17.498 c 0,0 7.274,0.982 7.274,-6.292 C 8.847,1.573 0,0 0,0 m 4.524,30.479 c -4.329,0 -17.498,-1.969 -17.505,-1.969 l -3.932,-44.435 c 0,0 12.98,1.768 16.913,2.359 3.933,0.592 23.595,4.323 23.595,26.742 0,6.682 -1.963,17.303 -19.071,17.303" /></g><g
           transform="translate(114.5086,40.7821)"
           id="g72"><path
             id="path74"
             style="fill:#292929;fill-opacity:1;fill-rule:nonzero;stroke:none"
             d="m 0,0 13.742,1.699 1.378,11.596 -13.994,-1.919 0.422,4.279 15.145,2.164 1.768,11.993 -30.674,-4.518 -5.506,-44.636 34.211,4.719 1.774,12.779 -18.681,-2.359 z" /></g><g
           transform="translate(193.7767,56.7578)"
           id="g76"><path
             id="path78"
             style="fill:#292929;fill-opacity:1;fill-rule:nonzero;stroke:none"
             d="M 0,0 2.114,5.776 4.807,0.516 Z M 41.043,-1.302 43.208,28.39 26.886,26.427 24.527,-4.644 11.156,24.262 -6.342,21.708 -20.89,-11.131 l -7.475,7.865 14.749,23.596 -17.895,-2.555 -9.677,-15.334 1.736,14.082 -15.73,-2.164 -5.506,-44.637 15.731,2.165 1.881,15.246 11.169,-13.403 23.595,3.537 4.002,11.728 14.503,1.774 4.7,-9.96 38.735,5.701 1.378,13.566 c 0,0 -9.438,-1.97 -13.963,-1.378" /></g><g
           transform="translate(267.4637,73.3627)"
           id="g80"><path
             id="path82"
             style="fill:#292929;fill-opacity:1;fill-rule:nonzero;stroke:none"
             d="m 0,0 0.78,6.475 c 0,0 4.524,0.786 4.329,-2.36 C 4.946,1.435 3.196,0.466 0,0 m -1.774,-16.139 0.824,7.468 c 2.032,0.227 5.914,0.246 6.059,-2.944 0.202,-4.323 -6.877,-4.524 -6.883,-4.524 M 16.12,-2.561 c 0,0 3.933,3.341 3.933,9.828 0,6.488 -5.707,10.225 -11.011,10.225 -5.305,0 -21.651,-3.001 -21.651,-3.001 l -5.506,-44.637 c 0,0 2.177,0.453 18.895,2.813 16.718,2.36 20.255,9.438 20.255,15.925 0,6.488 -4.915,8.847 -4.915,8.847" /></g><g
           transform="translate(198.1856,100.9915)"
           id="g84"><path
             id="path86"
             style="fill:#292929;fill-opacity:1;fill-rule:nonzero;stroke:none"
             d="M 0,0 C 1.496,0.317 2.749,-4.766 2.749,-4.766 4.688,-11.434 -0.21,-13.41 -0.21,-13.41 3.242,-5.69 0,0 0,0 m 101.253,-62.885 -0.836,-0.112 c -13.603,-1.841 -209.187,-28.571 -235.772,-32.249 -8.493,-1.175 -15.471,-1.745 -21.333,-1.745 h -0.001 c -11.536,0 -19.54,2.142 -26.763,7.164 -10.182,7.079 -10.958,22.996 -10.69,25.837 0.768,8.048 6.101,22.381 33.193,27.918 9.471,1.936 117.759,21.023 118.852,21.216 l 6.258,1.111 c 2.641,-0.793 6.093,-1.693 10.562,-2.606 2.828,-0.579 6.505,-0.165 9.424,1.975 9.937,-3.18 10.251,9.979 10.251,9.979 -0.194,2.069 -1.031,4.449 -2.825,7.178 0,0 0.341,-5.394 -1.977,-7.484 l -0.472,-0.16 c 0.194,1.074 0.96,6.003 -0.433,10.526 l 2.618,1.183 c 0,0 5.506,-2.624 5.506,-10.621 l -0.006,-0.194 0.011,0.003 c 0.03,-1.156 0.036,-7.834 -3.633,-11.892 0,0 4.052,-4.169 10.602,0.559 1.949,1.406 3.48,3.557 4.247,7.635 0.433,2.301 -0.139,5.665 -0.139,5.665 -1.003,3.85 -3.774,8.315 -9.371,11.714 l 5.638,3.41 -1.051,-3.014 c 0,0 6.707,-3.353 8.952,-11.009 1.227,-6.003 -2.966,-13.584 -2.966,-13.584 5.818,-3.38 10.485,3.904 10.485,3.904 6.235,-2.276 8.966,-0.718 11.423,0.889 3.568,2.333 4.937,5.954 5.416,8.781 l 1.112,0.197 c 0.506,0.094 47.63,8.823 70.876,9.973 0.665,0.033 1.311,0.049 1.944,0.049 18.018,0 22.81,-13.099 24.032,-18.731 0.177,-0.811 0.324,-1.388 0.458,-1.915 0.543,-2.132 0.871,-3.418 2.809,-24.729 1.816,-19.979 -17.838,-24.32 -36.401,-26.821 m -131.563,55.72 6.033,5.485 c 0,0 -0.583,-4.434 -3.952,-6.644 -0.643,-0.395 -2.934,-1.655 -5.593,-1.375 0,0 1.38,-0.024 3.512,2.534 m 171.947,-28.537 c -2.359,25.955 -2.359,22.614 -3.341,27.132 -0.981,4.518 -6.292,23.004 -30.082,21.827 C 84.423,12.081 36.836,3.228 36.836,3.228 L 36.599,3.186 c -0.138,0.846 -1.785,9.895 -10.211,16.829 0,0 0.591,12.975 3.737,21.041 3.146,8.067 5.506,14.547 -7.475,22.413 -12.981,7.865 -35.035,4.838 -48.374,3.146 -12.389,-1.573 -47.386,-4.329 -102.838,4.719 -2.775,0.453 -2.555,-1.378 -0.39,-3.341 2.164,-1.964 9.029,-9.829 37.947,-9.829 34.802,0 72.951,4.719 84.749,4.719 11.798,0 29.693,-4.329 29.693,-14.157 0,-9.828 -3.342,-15.925 -3.738,-29.296 0,0 10.495,-6.114 9.856,-17.582 L 29.471,0.72 c -0.343,2.156 -2.206,4.799 -4.071,5.729 0,0 0.433,-1.828 0.172,-4.126 C 25.548,2.091 25.513,1.872 25.479,1.653 25.449,1.472 25.414,1.29 25.373,1.106 l 0.014,0.002 c -0.881,-4.582 -3.56,-6.329 -3.56,-6.329 0.832,1.972 0.726,6.158 0.692,6.32 V 1.106 L 22.518,1.105 c -0.946,4.458 -3,11.262 -7.148,14.783 0,0 1.793,19.071 3.146,27.333 1.768,10.816 -11.603,15.925 -23.205,15.925 -19.468,0 -35.985,-6.487 -108.149,-2.555 -26.465,1.441 -55.245,6.878 -55.245,6.878 0,0 3.542,-3.543 5.902,-6.689 2.36,-3.146 5.311,-11.206 18.876,-12.974 8.168,-1.064 38.709,-2.7 67.093,-2.674 -2.277,2.686 -4.505,5.807 -6.399,9.362 0,0 4.26,-4.58 9.52,-9.35 17.599,0.095 34.009,0.868 43.246,2.863 l 1.378,-0.982 c 0,0 -12.301,-2.667 -43.076,-3.259 4.738,-4.159 10.004,-8.136 13.648,-9.016 12.351,1.566 24.325,3.737 33.555,6.77 l 1.964,-0.592 c 0,0 -8.797,-4.719 -34.022,-8.418 0,0 3.152,-3.964 8.658,-5.934 5.506,-1.969 9.048,-2.756 13.566,0.195 4.518,2.951 13.767,9.243 15.73,11.206 0,0 10.225,-7.475 20.059,-6.682 0,0 0.982,-2.756 -2.164,-7.078 0,0 4.914,1.768 8.06,6.487 l 0.787,-0.592 c 0,0 -4.719,-12.389 -26.15,-16.913 0,0 3.012,-9.446 -0.369,-15.837 0,0 -2.264,-4.287 -7.071,-5.393 0,0 2.454,3.058 3.155,4.996 l -0.002,-10e-4 c 1.387,3.163 2.216,7.97 0.354,14.857 0,0 -5.902,-12.389 -16.12,-14.547 0,0 4.329,4.127 4.524,6.487 0,0 -5.506,-4.524 -13.176,-3.738 l 17.303,10.621 c 0,0 -4.719,0.592 -5.902,2.36 0,0 -9.438,-7.67 -17.693,-8.652 l 12.779,7.67 -7.67,1.183 c 0,0 -12.974,-7.865 -24.382,-8.06 l 21.827,8.457 -5.31,1.768 c 0,0 -27.528,-10.03 -43.258,-11.401 0,0 5.7,-0.982 11.011,-2.165 5.31,-1.183 22.809,-6.487 34.216,-3.738 l -3.536,-3.341 c 0,0 8.886,0.769 14.018,-1.706 -6.809,-1.2 -109.283,-19.268 -118.596,-21.172 -9.633,-1.969 -34.216,-8.828 -36.374,-31.46 -0.391,-4.128 0.786,-21.431 12.389,-29.498 11.602,-8.066 25.363,-9.633 50.928,-6.097 25.565,3.536 221.206,30.278 235.76,32.247 14.553,1.97 43.044,5.304 40.684,31.259" /></g></g></g></g></svg>