<?xml version="1.0" standalone="no"?>
<!DOCTYPE svg PUBLIC "-//W3C//DTD SVG 20010904//EN"
 "http://www.w3.org/TR/2001/REC-SVG-20010904/DTD/svg10.dtd">
<svg version="1.0" xmlns="http://www.w3.org/2000/svg"
 width="795.000000pt" height="266.000000pt" viewBox="0 0 795.000000 266.000000"
 preserveAspectRatio="xMidYMid meet">

<g transform="translate(0.000000,266.000000) scale(0.100000,-0.100000)"
fill="#000000" stroke="none">
<path d="M4570 1935 c-30 -9 -74 -25 -97 -37 -59 -30 -149 -126 -177 -190 -46
-105 -51 -147 -51 -423 0 -217 3 -271 18 -324 43 -157 142 -264 286 -308 75
-22 237 -23 311 0 164 49 268 172 302 356 5 30 8 167 6 315 -5 305 -14 351
-96 457 -88 115 -182 160 -347 166 -68 2 -118 -2 -155 -12z m228 -220 c75 -32
114 -91 132 -196 13 -81 13 -372 0 -462 -20 -137 -77 -196 -199 -205 -80 -5
-129 8 -176 50 -64 55 -70 90 -70 388 l0 265 26 56 c25 54 61 88 110 108 38
15 136 13 177 -4z"/>
<path d="M6788 1935 c-163 -45 -272 -162 -313 -337 -21 -89 -21 -515 0 -613
31 -145 102 -243 218 -300 189 -92 428 -62 560 70 112 112 141 239 134 580 -6
303 -24 371 -131 483 -56 60 -116 95 -203 117 -69 18 -200 18 -265 0z m261
-238 c31 -20 50 -45 69 -85 27 -56 27 -60 30 -305 3 -203 0 -257 -13 -302 -32
-111 -110 -162 -236 -153 -96 7 -144 40 -179 123 -24 58 -25 67 -25 305 0 213
2 252 18 298 39 109 106 155 223 150 58 -3 79 -8 113 -31z"/>
<path d="M5650 1919 c-146 -48 -250 -165 -291 -329 -22 -88 -19 -545 4 -629
66 -241 268 -373 487 -317 76 20 120 51 156 111 39 67 54 60 54 -25 l0 -70
105 0 105 0 0 320 0 320 -270 0 -271 0 3 -112 3 -113 153 -3 153 -3 -7 -37
c-22 -123 -98 -178 -239 -170 -64 3 -78 7 -112 34 -94 76 -106 128 -101 428 3
208 5 224 27 266 42 80 73 103 161 120 139 26 248 -51 265 -186 l6 -54 115 0
114 0 0 45 c0 171 -112 335 -270 397 -83 32 -262 36 -350 7z"/>
<path d="M3200 1295 l0 -635 405 0 405 0 0 115 0 115 -287 2 -288 3 -3 518 -2
517 -115 0 -115 0 0 -635z"/>
</g>
</svg>
